# xmcd
#
# Track frame offsets:
#	150
#	7162
#	19397
#	35832
#	50112
#	62235
#	81940
#	100805
#	117160
#	119440
#	127472
#	153400
#	162520
#	172055
#	193300
#	208820
#
# Disc length: 2896 seconds
#
# Revision: 1
# Processed by: cddbd v1.5PL3 Copyright (c) Steve Scherf et al.
# Submitted via: CDex 1.50Beta5
#
DISCID=fd0b4e10
DTITLE=栗コーダーカルテット - 蛙のガリアルド
DYEAR=1900
DGENRE=
TTITLE0=静かに静かに!
TTITLE1=聖地エルサレム
TTITLE2=写真の中の君
TTITLE3=マヨネーズ第二番
TTITLE4=トルコ人の儀式のための行進曲
TTITLE5=消えたかに道楽
TTITLE6=マヨネーズ第一番
TTITLE7=くつやのマルチン
TTITLE8=肩車のグラウンド
TTITLE9=ツーリスト・トラップ
TTITLE10=海を渡る風
TTITLE11=ジャムズプロムナード
TTITLE12=肩車のグラウンドによる変奏
TTITLE13=夏の終わりのアルマンド
TTITLE14=ロンドとサルタレッロ
TTITLE15=今こそ別れ
EXTD=
EXTT0=
EXTT1=
EXTT2=
EXTT3=
EXTT4=
EXTT5=
EXTT6=
EXTT7=
EXTT8=
EXTT9=
EXTT10=
EXTT11=
EXTT12=
EXTT13=
EXTT14=
EXTT15=
PLAYORDER=
